<?xml version="1.0" encoding="UTF-8"?>
<svg version="1.1" xmlns="http://www.w3.org/2000/svg" width="500" height="500">
<path d="M0 0 C165 0 330 0 500 0 C500 165 500 330 500 500 C335 500 170 500 0 500 C0 335 0 170 0 0 Z " fill="#FEFEFE" transform="translate(0,0)"/>
<path d="M0 0 C4.45951905 3.38437295 7.36135385 6.8214491 8.16064453 12.54248047 C8.88890505 22.37906889 8.72153802 32.22685799 3.35546875 40.83203125 C-1.40356489 46.03937966 -8.15886098 52.91790347 -15.52734375 53.65234375 C-21.61788553 53.81043158 -25.41073805 53.67897191 -30.13671875 49.4140625 C-36.84711553 42.5119401 -37.64389319 34.98852622 -37.55151367 25.77441406 C-37.23877662 16.94031864 -34.96595882 11.05079772 -28.94921875 4.4765625 C-21.07979539 -2.81327976 -9.68571489 -5.70661358 0 0 Z " fill="#8A5DF6" transform="translate(320.13671875,214.5859375)"/>
<path d="M0 0 C3.33502442 2.32676122 4.89246744 4.21589516 6.6875 7.875 C7.68643583 14.75655793 5.75495466 18.42117347 1.6875 23.875 C0.6904912 25.2105715 -0.3087362 26.54449784 -1.3125 27.875 C-0.55324219 28.62265625 0.20601562 29.3703125 0.98828125 30.140625 C1.99232136 31.13528156 2.99622017 32.13008077 4 33.125 C4.49951172 33.61613281 4.99902344 34.10726562 5.51367188 34.61328125 C12.38526058 41.43936274 12.38526058 41.43936274 13.1875 45.25 C12.46687896 49.03326045 10.63976289 51.51466952 7.6875 53.875 C4.1875 55.0625 4.1875 55.0625 0.6875 54.875 C-2 52.6875 -2 52.6875 -4.3125 49.875 C-5.075625 49.153125 -5.83875 48.43125 -6.625 47.6875 C-8.3125 45.875 -8.3125 45.875 -8.3125 43.875 C-8.93125 43.58625 -9.55 43.2975 -10.1875 43 C-12.3125 41.875 -12.3125 41.875 -14.3125 39.875 C-14.39886719 40.66003906 -14.48523438 41.44507813 -14.57421875 42.25390625 C-15.50268279 49.1960915 -16.63099955 53.608312 -21.3125 58.875 C-24.07500036 60.25625018 -26.25981099 60.06579306 -29.3125 59.875 C-31.3125 57.875 -31.3125 57.875 -31.578125 55.13671875 C-31.54426281 47.39074212 -31.17074453 39.7183531 -30.5 32 C-30.43006836 31.13334717 -30.36013672 30.26669434 -30.28808594 29.3737793 C-29.561154 21.80108893 -27.93163327 14.10078832 -23.3125 7.875 C-22.6525 7.875 -21.9925 7.875 -21.3125 7.875 C-21.126875 7.318125 -20.94125 6.76125 -20.75 6.1875 C-15.85528881 -1.68660061 -8.35240557 -2.83666604 0 0 Z " fill="#2664EB" transform="translate(200.3125,214.125)"/>
<path d="M0 0 C8.00551068 2.65620631 14.59938599 6.93425001 19.0234375 14.25 C21.29991691 20.00110588 21.38802386 26.41003411 19.171875 32.203125 C17.95159637 34.26946347 16.60069196 36.03466319 15.0625 37.875 C14.5778125 38.55175781 14.093125 39.22851562 13.59375 39.92578125 C7.40284418 47.98306309 -3.07500313 52.81357647 -12.9375 54.875 C-16.48473987 54.64858043 -17.4236581 54.3888419 -19.9375 51.875 C-20.18041992 49.0402832 -20.18041992 49.0402832 -20.16796875 45.42578125 C-20.16751053 44.77610886 -20.16705231 44.12643646 -20.1665802 43.45707703 C-20.16355321 42.07252187 -20.15565358 40.68797025 -20.14331055 39.3034668 C-20.12545943 37.24059159 -20.1227983 35.17817745 -20.12304688 33.11523438 C-20.10636863 26.28244077 -19.94939749 19.45627537 -19.5859375 12.6328125 C-19.4938501 10.84254639 -19.4938501 10.84254639 -19.39990234 9.01611328 C-18.81915351 5.07106865 -17.65242274 2.61782648 -14.73046875 -0.08203125 C-9.98302673 -2.84361517 -4.98040676 -1.26633598 0 0 Z " fill="#2863EB" transform="translate(237.9375,209.125)"/>
<path d="M0 0 C3.25 1.0625 3.25 1.0625 5.25 3.0625 C5.59040154 8.89938525 4.90668343 14.38287335 3.9296875 20.12890625 C3.78854523 20.96663071 3.64740295 21.80435516 3.50198364 22.66746521 C3.20154561 24.42701701 2.89711371 26.18589112 2.58886719 27.9440918 C2.12624558 30.61780122 1.69588884 33.29552936 1.265625 35.97460938 C0.96812799 37.69305266 0.66871243 39.41116514 0.3671875 41.12890625 C0.24503876 41.92075821 0.12289001 42.71261017 -0.00296021 43.52845764 C-1.06409283 49.25949945 -3.28303176 53.23646678 -7.75 57.0625 C-10.9375 58.1875 -10.9375 58.1875 -13.75 58.0625 C-16.41380424 55.94633064 -17.60834504 53.59117648 -18.9375 50.5 C-19.45376953 49.32244141 -19.45376953 49.32244141 -19.98046875 48.12109375 C-20.75 46.0625 -20.75 46.0625 -20.75 44.0625 C-21.41 44.0625 -22.07 44.0625 -22.75 44.0625 C-22.78738281 44.65417969 -22.82476562 45.24585938 -22.86328125 45.85546875 C-23.26530987 50.68769512 -23.78562029 54.07198885 -26.75 58.0625 C-27.1625 58.825625 -27.575 59.58875 -28 60.375 C-29.75 62.0625 -29.75 62.0625 -33.3125 62.4375 C-36.75 62.0625 -36.75 62.0625 -38.75 60.0625 C-39.47253349 52.24065486 -37.64439574 44.92204273 -35.86914062 37.35864258 C-35.37256751 35.23961985 -34.89224972 33.11737989 -34.4140625 30.99414062 C-31.83137733 19.72911901 -31.83137733 19.72911901 -29.75 16.0625 C-29.09 16.0625 -28.43 16.0625 -27.75 16.0625 C-27.440625 15.423125 -27.13125 14.78375 -26.8125 14.125 C-25.75 12.0625 -25.75 12.0625 -24.75 11.0625 C-22 10.5 -22 10.5 -18.75 11.0625 C-17.14882725 12.97259467 -16.00727956 14.92396002 -14.828125 17.1171875 C-13.78359962 19.2127038 -13.78359962 19.2127038 -11.75 21.0625 C-11.67523438 20.13308594 -11.60046875 19.20367187 -11.5234375 18.24609375 C-10.18693436 5.68034368 -10.18693436 5.68034368 -5.47265625 1.0703125 C-3.75 0.0625 -3.75 0.0625 0 0 Z " fill="#2664EB" transform="translate(116.75,212.9375)"/>
<path d="M0 0 C0.86818359 -0.01224609 1.73636719 -0.02449219 2.63085938 -0.03710938 C3.47068359 -0.03904297 4.31050781 -0.04097656 5.17578125 -0.04296875 C5.94446533 -0.04707764 6.71314941 -0.05118652 7.50512695 -0.05541992 C9.98477885 0.22059011 11.57678132 0.87094176 13.6875 2.1875 C15.11412219 5.04074437 14.99783868 7.02204549 14.6875 10.1875 C12.88756226 12.88740662 11.603727 14.7293865 8.6875 16.1875 C6.64694995 16.25815617 4.60415743 16.27171976 2.5625 16.25 C1.46679688 16.24097656 0.37109375 16.23195312 -0.7578125 16.22265625 C-2.02238281 16.20525391 -2.02238281 16.20525391 -3.3125 16.1875 C-3.3125 17.8375 -3.3125 19.4875 -3.3125 21.1875 C-2.054375 21.125625 -0.79625 21.06375 0.5 21 C4.39089488 21.02065962 4.39089488 21.02065962 6.6875 22.3125 C8.22763098 25.20024559 8.19474104 26.95383835 7.6875 30.1875 C5.85991752 33.11163196 3.81987723 35.62131139 0.6875 37.1875 C-1.6454866 37.22772391 -3.97956666 37.23070247 -6.3125 37.1875 C-6.3125 38.5075 -6.3125 39.8275 -6.3125 41.1875 C-5.04792969 41.15269531 -3.78335938 41.11789063 -2.48046875 41.08203125 C-0.82032577 41.05389323 0.83983156 41.02659309 2.5 41 C3.33337891 40.97486328 4.16675781 40.94972656 5.02539062 40.92382812 C6.22905273 40.90932617 6.22905273 40.90932617 7.45703125 40.89453125 C8.19542236 40.8788208 8.93381348 40.86311035 9.69458008 40.84692383 C12.28638054 41.28984453 13.17492178 42.05786517 14.6875 44.1875 C14.375 47.875 14.375 47.875 13.6875 51.1875 C12.6975 51.5175 11.7075 51.8475 10.6875 52.1875 C10.44644531 52.85265625 10.20539063 53.5178125 9.95703125 54.203125 C9.53808594 54.85796875 9.11914062 55.5128125 8.6875 56.1875 C6.12144217 56.67037699 3.95675323 56.88572127 1.375 56.9375 C0.30934814 56.97870972 0.30934814 56.97870972 -0.77783203 57.02075195 C-2.95602191 57.09734604 -5.13342002 57.14434499 -7.3125 57.1875 C-9.23255859 57.24744141 -9.23255859 57.24744141 -11.19140625 57.30859375 C-17.68570707 57.43194918 -17.68570707 57.43194918 -20.3125 57.1875 C-22.3125 55.1875 -22.3125 55.1875 -22.46484375 52.109375 C-22.41036323 50.7179734 -22.33701371 49.32724644 -22.25 47.9375 C-22.20399658 47.17695313 -22.15799316 46.41640625 -22.1105957 45.6328125 C-21.54882854 38.12126607 -20.49128 30.67621521 -19.32156372 23.2388916 C-19.10727102 21.8718274 -18.89850282 20.50388572 -18.69528198 19.13513184 C-18.40303778 17.19131195 -18.08289602 15.25174923 -17.76171875 13.3125 C-17.48847778 11.61480469 -17.48847778 11.61480469 -17.2097168 9.8828125 C-16.3125 7.1875 -16.3125 7.1875 -14.29614258 5.93359375 C-13.3142395 5.56427734 -13.3142395 5.56427734 -12.3125 5.1875 C-11.10367904 3.18733534 -11.10367904 3.18733534 -10.3125 1.1875 C-8.08752688 -1.03747312 -2.98760941 0.00218872 0 0 Z " fill="#2764EB" transform="translate(149.3125,206.8125)"/>
<path d="M0 0 C2.08584677 2.08584677 1.32466177 6.54285391 1.4375 9.4375 C1.74982731 20.53100323 1.74982731 20.53100323 5 31 C8.94727588 31.17942163 11.5980513 31.09350689 15 29 C14.814375 28.071875 14.62875 27.14375 14.4375 26.1875 C14 23 14 23 15 20 C15.12976569 16.6296966 15.24783455 13.26540817 15.25390625 9.89257812 C15.3887951 6.0624446 15.67323436 4.34302264 18.35546875 1.52734375 C21.59484804 -0.3435533 23.31731572 -0.62683988 27 0 C29.84347075 2.16620772 30.88029156 3.381644 31.56640625 6.92578125 C31.55333405 18.25938166 29.67823032 29.21590654 22.1875 38.125 C20.83393146 39.46089134 19.43918738 40.75682135 18 42 C17.3709375 42.54527344 16.741875 43.09054687 16.09375 43.65234375 C11.46412949 47.0771245 7.25179806 47.7254126 1.546875 47.40234375 C-2.34320582 46.78780644 -4.20168217 45.79831783 -7 43 C-14.25528454 32.07654087 -15.71040373 17.80171406 -14 5 C-10.81381584 -0.92931904 -6.31697278 -1.89509183 0 0 Z " fill="#8B5CF6" transform="translate(347,219)"/>
<path d="M0 0 C0.97710937 -0.01224609 1.95421875 -0.02449219 2.9609375 -0.03710938 C8.44665186 -0.04819909 13.10238323 0.22617543 18.25 2.1875 C20.25 4.1875 20.25 4.1875 20.6875 7.5625 C20.25 11.1875 20.25 11.1875 18 13.625 C15.25 15.1875 15.25 15.1875 11.25 15.1875 C11.25 14.1975 11.25 13.2075 11.25 12.1875 C9.93 12.1875 8.61 12.1875 7.25 12.1875 C7.26160156 13.3734375 7.27320313 14.559375 7.28515625 15.78125 C7.32195618 20.91723961 7.3001433 26.05166925 7.25 31.1875 C7.24419922 31.97608398 7.23839844 32.76466797 7.23242188 33.57714844 C7.20435841 35.74084195 7.14013181 37.90008248 7.0625 40.0625 C7.02769531 41.31804687 6.99289062 42.57359375 6.95703125 43.8671875 C6.07269387 48.0201531 4.44462176 49.48249401 1.25 52.1875 C0.59 52.8475 -0.07 53.5075 -0.75 54.1875 C-3.75 54.4375 -3.75 54.4375 -6.75 54.1875 C-8.75 52.1875 -8.75 52.1875 -8.98046875 48.21484375 C-8.97776812 46.51817086 -8.96264248 44.82148874 -8.9375 43.125 C-8.92783203 41.7951709 -8.92783203 41.7951709 -8.91796875 40.43847656 C-8.8217352 32.00300451 -8.36020838 23.59965842 -7.75 15.1875 C-8.36488281 15.22230469 -8.97976563 15.25710937 -9.61328125 15.29296875 C-10.82564453 15.33357422 -10.82564453 15.33357422 -12.0625 15.375 C-13.26326172 15.42720703 -13.26326172 15.42720703 -14.48828125 15.48046875 C-16.75 15.1875 -16.75 15.1875 -18.5078125 13.8203125 C-19.75 12.1875 -19.75 12.1875 -20.3125 9.875 C-19.47468047 5.87208449 -16.93769752 3.63838179 -13.75 1.1875 C-9.22180427 -0.32189858 -4.742986 0.00307986 0 0 Z " fill="#8C5CF6" transform="translate(401.75,213.8125)"/>
<path d="M0 0 C3.65875847 0.20709954 6.21019049 0.42508566 9.2109375 2.609375 C11.6503956 5.86908758 11.43531471 8.03502455 11.3125 12.0625 C11.28800781 13.29097656 11.26351563 14.51945313 11.23828125 15.78515625 C11 19 11 19 10 22 C10.66 22.33 11.32 22.66 12 23 C9.07741131 25.8340254 7.46426872 26.93596294 3.375 27.5 C0 27 0 27 -1.875 25.25 C-4.78497919 19.43004163 -5.13630992 11.99451279 -3.36328125 5.76171875 C-1.59464928 1.59464928 -1.59464928 1.59464928 0 0 Z " fill="#FDFCFF" transform="translate(302,226)"/>
<path d="M0 0 C5.3620732 3.10956294 8.73341269 7.451345 10.625 13.375 C10.86661573 15.99063071 11.00556171 18.44942171 11 21.0625 C10.9997583 22.11836304 10.9997583 22.11836304 10.99951172 23.19555664 C10.87167774 29.07255584 9.77225203 34.30953232 6.625 39.375 C5.635 39.87 5.635 39.87 4.625 40.375 C4.78226562 39.57835937 4.93953125 38.78171875 5.1015625 37.9609375 C5.73509795 33.62074691 5.9242321 29.38076245 6 25 C6.03738281 24.18789062 6.07476562 23.37578125 6.11328125 22.5390625 C6.20231762 16.36587418 4.72193391 12.06372862 0.625 7.375 C-4.70993543 3.4265219 -9.85860642 2.58444965 -16.375 3.375 C-19.10586383 3.91117626 -21.69771559 4.59615363 -24.375 5.375 C-18.64704407 -2.6865676 -8.94109381 -4.07184538 0 0 Z " fill="#15F7FE" transform="translate(321.375,209.625)"/>
<path d="M0 0 C10.25084557 -0.56949142 19.17309702 2.21668409 27 9 C31.66331845 13.75946935 33.38761246 17.95517603 33.625 24.625 C33.37748285 30.18110874 32.30194253 33.56301472 29 38 C28 36 28 36 28.4375 34.375 C29.87946039 28.2867228 29.44030493 23.35485367 26.37109375 17.94921875 C20.02412227 8.92603138 11.11986499 6.26029794 0.6015625 4.3984375 C-0.68621094 4.20121094 -0.68621094 4.20121094 -2 4 C-1.34 2.68 -0.68 1.36 0 0 Z " fill="#0AFBFE" transform="translate(225,208)"/>
<path d="M0 0 C0.33 0 0.66 0 1 0 C0.43667522 5.40198818 -0.23035251 10.77968544 -0.97265625 16.16015625 C-1.14990234 17.44857422 -1.32714844 18.73699219 -1.50976562 20.06445312 C-1.7859339 22.06783913 -2.06369079 24.07094839 -2.34594727 26.07348633 C-3.87148607 36.49750915 -3.87148607 36.49750915 -4 47 C-2.91891551 48.30661495 -2.91891551 48.30661495 -0.31616211 48.11352539 C1.43555298 48.10567017 1.43555298 48.10567017 3.22265625 48.09765625 C4.48271484 48.09443359 5.74277344 48.09121094 7.04101562 48.08789062 C8.38151109 48.07953403 9.72200588 48.07106907 11.0625 48.0625 C12.40689942 48.0574866 13.7513006 48.05292342 15.09570312 48.04882812 C18.39717941 48.03699488 21.69856803 48.02050971 25 48 C24.34 48.99 23.68 49.98 23 51 C18.90336689 51.69198219 14.77416094 51.71098335 10.6237793 51.81835938 C8.57258191 51.87472297 6.52449945 51.9630668 4.47460938 52.0546875 C3.18490234 52.0959375 1.89519531 52.1371875 0.56640625 52.1796875 C-0.62009521 52.21819824 -1.80659668 52.25670898 -3.02905273 52.29638672 C-6 52 -6 52 -7.91064453 50.7097168 C-9.83105862 47.6956738 -8.893841 44.32001837 -8.4375 40.9375 C-8.33816162 40.12273193 -8.23882324 39.30796387 -8.13647461 38.46850586 C-7.78027543 35.64223965 -7.39190465 32.8215316 -7 30 C-6.85079102 28.88657227 -6.70158203 27.77314453 -6.54785156 26.62597656 C-6.07038234 23.10207797 -5.57083072 19.58207106 -5.0625 16.0625 C-4.82648071 14.36565063 -4.82648071 14.36565063 -4.58569336 12.63452148 C-4.42464111 11.57048096 -4.26358887 10.50644043 -4.09765625 9.41015625 C-3.95851807 8.46277588 -3.81937988 7.51539551 -3.67602539 6.53930664 C-2.93375564 3.75117097 -1.91873615 2.13447246 0 0 Z " fill="#F00DFD" transform="translate(132,215)"/>
<path d="M0 0 C0 3 0 3 -1.47265625 6.62890625 C-3.21444033 11.12141591 -3.50126921 15.152769 -3.4375 19.9375 C-3.42722778 21.12218872 -3.42722778 21.12218872 -3.41674805 22.33081055 C-3.20466629 30.02373858 -1.43787932 35.07454482 3.5 41 C7.06824496 43.85459597 10.0126141 44.14036776 14.5 44.125 C15.2528125 44.12757813 16.005625 44.13015625 16.78125 44.1328125 C18.973535 44.00158417 20.89319137 43.60331338 23 43 C20.15729501 46.12697549 17.65803803 47.78460533 13.4140625 48.3359375 C7.40580624 48.42008675 3.65728151 48.20291259 -1 44 C-7.7209677 37.08700466 -8.47371654 29.5898926 -8.42578125 20.37133789 C-8.19298335 13.0244624 -6.6020241 7.03569478 -1.75 1.375 C-1.1725 0.92125 -0.595 0.4675 0 0 Z " fill="#F80FFE" transform="translate(291,220)"/>
<path d="M0 0 C0.66 2.31 1.32 4.62 2 7 C5.3 7.33 8.6 7.66 12 8 C11.67 20.54 11.34 33.08 11 46 C12.98 46.33 14.96 46.66 17 47 C16.34 47.99 15.68 48.98 15 50 C12 50.3125 12 50.3125 9 50 C7 48 7 48 6.76953125 44.02734375 C6.77223188 42.33067086 6.78735752 40.63398874 6.8125 38.9375 C6.82216797 37.6076709 6.82216797 37.6076709 6.83203125 36.25097656 C6.9282648 27.81550451 7.38979162 19.41215842 8 11 C7.38511719 11.03480469 6.77023437 11.06960937 6.13671875 11.10546875 C4.92435547 11.14607422 4.92435547 11.14607422 3.6875 11.1875 C2.48673828 11.23970703 2.48673828 11.23970703 1.26171875 11.29296875 C-1 11 -1 11 -2.76953125 9.64453125 C-4 8 -4 8 -4.375 5.5 C-4.00756912 3.05046079 -3.00832012 0 0 0 Z " fill="#FA0BFE" transform="translate(386,218)"/>
<path d="M0 0 C0.33 0 0.66 0 1 0 C1.03738281 1.00417969 1.07476562 2.00835937 1.11328125 3.04296875 C1.92564433 22.50492878 1.92564433 22.50492878 11.73828125 38.69921875 C14.84280014 40.48471925 17.1977946 40.29406616 20.75 40.1875 C21.92046875 40.16042969 23.0909375 40.13335937 24.296875 40.10546875 C25.18890625 40.07066406 26.0809375 40.03585937 27 40 C23.63381101 43.51919758 21.62681018 44.18591613 16.75 44.3125 C11.61673325 44.2253819 8.75679255 43.75679255 5 40 C-1.18420963 30.6891369 -2.14382367 20.82571094 -2.25 9.9375 C-2.25942627 9.18654053 -2.26885254 8.43558105 -2.27856445 7.66186523 C-2.24573189 2.24573189 -2.24573189 2.24573189 0 0 Z " fill="#FC08FE" transform="translate(335,222)"/>
<path d="M0 0 C0.66 0 1.32 0 2 0 C1.99555878 0.5593222 1.99111755 1.11864441 1.98654175 1.69491577 C1.94238851 7.50198824 1.91216706 13.30901325 1.89013672 19.11621094 C1.88006211 21.28517594 1.86640202 23.45412731 1.84912109 25.62304688 C1.82493677 28.73571126 1.81353168 31.84819651 1.8046875 34.9609375 C1.79436493 35.934935 1.78404236 36.9089325 1.77340698 37.91244507 C1.77325592 38.81322784 1.77310486 39.71401062 1.77294922 40.64208984 C1.768508 41.43706879 1.76406677 42.23204773 1.75949097 43.05111694 C1.82631697 45.23643491 1.82631697 45.23643491 4 47 C10.18087868 46.60547583 16.07101268 44.70471787 22 43 C22 43.66 22 44.32 22 45 C19.27411167 46.00981089 16.54487736 47.00803308 13.8125 48 C13.04357422 48.28617187 12.27464844 48.57234375 11.48242188 48.8671875 C3.74385553 51.65705691 3.74385553 51.65705691 0 51 C-1.61816406 49.89111328 -1.61816406 49.89111328 -3 48 C-3.32592773 45.01904297 -3.32592773 45.01904297 -3.24609375 41.3671875 C-3.23420517 40.70870819 -3.22231659 40.05022888 -3.21006775 39.37179565 C-3.05223236 32.3245775 -2.65990736 25.28466989 -2.20043945 18.25146484 C-2.0594632 16.07818494 -1.9288012 13.9044318 -1.79882812 11.73046875 C-1.71153821 10.34371206 -1.62367099 8.95699155 -1.53515625 7.5703125 C-1.456604 6.33039551 -1.37805176 5.09047852 -1.29711914 3.81298828 C-1 1 -1 1 0 0 Z " fill="#F812FE" transform="translate(217,216)"/>
<path d="M0 0 C0 3 0 3 -1.375 5 C-8.09053705 17.39791456 -6.1758661 35.2238224 -6 49 C-4.02 49.66 -2.04 50.32 0 51 C-0.66 51.99 -1.32 52.98 -2 54 C-5.5 54.3125 -5.5 54.3125 -9 54 C-11 52 -11 52 -11.18286133 49.74780273 C-11.1495874 48.81911377 -11.11631348 47.8904248 -11.08203125 46.93359375 C-11.04634033 45.89847656 -11.01064941 44.86335938 -10.97387695 43.796875 C-10.92062256 42.68828125 -10.86736816 41.5796875 -10.8125 40.4375 C-10.75989014 39.30957031 -10.70728027 38.18164062 -10.65307617 37.01953125 C-9.15554562 9.15554562 -9.15554562 9.15554562 0 0 Z " fill="#F30EFD" transform="translate(176,223)"/>
<path d="M0 0 C2.9375 0.375 2.9375 0.375 4.9375 2.375 C5.17076931 5.20671221 5.30627059 7.97655279 5.375 10.8125 C5.37736584 22.3765967 5.37736584 22.3765967 9.9375 32.375 C11.93708364 32.41580783 13.93795254 32.41754356 15.9375 32.375 C15.9375 33.035 15.9375 33.695 15.9375 34.375 C13.46403696 36.84846304 12.22988832 37.35813144 8.6875 37.5625 C7.32625 37.4696875 7.32625 37.4696875 5.9375 37.375 C1.92351296 30.2196318 1.76868015 22.9466323 1.375 14.9375 C1.33181641 14.11056641 1.28863281 13.28363281 1.24414062 12.43164062 C1.13911967 10.41290451 1.03791441 8.39397049 0.9375 6.375 C-1.3725 5.715 -3.6825 5.055 -6.0625 4.375 C-4.29380527 1.23065381 -3.67806806 0.45037568 0 0 Z " fill="#0CF9FE" transform="translate(346.0625,213.625)"/>
<path d="M0 0 C6.75 0.75 6.75 0.75 9 3 C9.35197757 8.89562431 8.62510738 14.4091409 7.609375 20.20703125 C7.46348938 21.0542424 7.31760376 21.90145355 7.16729736 22.77433777 C6.85826287 24.55065093 6.54544451 26.3263096 6.22900391 28.10131836 C5.74877396 30.81943942 5.2940552 33.54109804 4.83984375 36.26367188 C4.53540835 37.99506566 4.22947141 39.72619625 3.921875 41.45703125 C3.78940369 42.26952835 3.65693237 43.08202545 3.52044678 43.91914368 C2.87896297 47.38135921 2.465782 49.55315179 -0.12011719 52.03393555 C-1.05065918 52.51213745 -1.05065918 52.51213745 -2 53 C-1.32634227 49.05275064 -0.65080067 45.10582843 0.02636719 41.15917969 C0.36749597 39.168784 0.70720152 37.17814456 1.046875 35.1875 C2.14921406 28.76799605 3.28195813 22.36554643 4.62426758 15.99145508 C5.14354906 13.23916202 5.33945501 10.78353105 5 8 C3.44318272 5.74261495 2.42368447 5.13315798 -0.1875 4.3125 C-0.785625 4.209375 -1.38375 4.10625 -2 4 C-1.34 2.68 -0.68 1.36 0 0 Z " fill="#0CFAFE" transform="translate(113,213)"/>
<path d="M0 0 C1.18916016 -0.020625 2.37832031 -0.04125 3.60351562 -0.0625 C4.75142578 -0.06765625 5.89933594 -0.0728125 7.08203125 -0.078125 C8.13237549 -0.0874707 9.18271973 -0.09681641 10.26489258 -0.10644531 C13.65360688 0.30684705 15.51314792 1.14182195 18.1875 3.25 C19 6.9375 19 6.9375 19.1875 10.25 C17.8675 11.24 16.5475 12.23 15.1875 13.25 C15.001875 12.30125 14.81625 11.3525 14.625 10.375 C13.50187804 7.00429029 13.50187804 7.00429029 10.34375 6.0625 C5.05837039 4.75899504 -0.34423713 5.03775615 -5.75 5.125 C-7.34811523 5.13853516 -7.34811523 5.13853516 -8.97851562 5.15234375 C-11.59008034 5.17576586 -14.20116937 5.20856548 -16.8125 5.25 C-13.58311018 -1.90079175 -7.01845197 0.03013828 0 0 Z " fill="#10FBFE" transform="translate(406.8125,209.75)"/>
<path d="M0 0 C1.54505943 3.09011886 0.369671 5.34758347 -0.43359375 8.66015625 C-0.7559998 10.02535747 -1.07826058 11.390593 -1.40039062 12.75585938 C-1.9150513 14.90015683 -2.43290543 17.04362036 -2.9543457 19.1862793 C-4.809806 26.85129891 -6.5053389 34.04756157 -6 42 C-4.02 42.66 -2.04 43.32 0 44 C-0.33 44.99 -0.66 45.98 -1 47 C-7.47274759 47.36638194 -7.47274759 47.36638194 -9.73876953 45.79174805 C-12.3335766 42.10547451 -10.67148777 37.210707 -10 33 C-9.16019418 28.5320443 -8.16814427 24.11195825 -7.125 19.6875 C-6.74021484 17.97723633 -6.74021484 17.97723633 -6.34765625 16.23242188 C-3.3559173 3.3559173 -3.3559173 3.3559173 0 0 Z " fill="#E51EFC" transform="translate(85,231)"/>
<path d="M0 0 C3.89398123 1.32248419 5.65313142 2.60749082 8.375 5.6875 C10.29149887 9.59420923 10.84511932 12.76627723 10 17 C8.8751948 19.56474978 7.56417918 21.65373122 6 24 C5 22 5 22 5.6875 18.25 C6.16117515 14.81585514 6.00750093 14.01590198 4.4375 10.6875 C1.33846988 7.27062063 -1.33070067 5.27826673 -6.0234375 4.7890625 C-9.46267604 4.72513613 -12.72574638 4.90858213 -16 6 C-10.51954958 0.3753272 -7.73211507 -0.70410491 0 0 Z " fill="#0BFAFE" transform="translate(197,213)"/>
<path d="M0 0 C6.61764706 2.64705882 6.61764706 2.64705882 9 6 C9.63959784 9.51778814 9.80255907 12.7961614 7.75 15.875 C4.6429474 17.87239096 2.7693826 19 -1 19 C-0.67 12.73 -0.34 6.46 0 0 Z " fill="#FBF2FF" transform="translate(234,226)"/>
<path d="M0 0 C0.99 0 1.98 0 3 0 C3 1.65 3 3.3 3 5 C4.26457031 4.96519531 5.52914062 4.93039063 6.83203125 4.89453125 C8.49217423 4.86639323 10.15233156 4.83909309 11.8125 4.8125 C13.06256836 4.77479492 13.06256836 4.77479492 14.33789062 4.73632812 C15.54155273 4.72182617 15.54155273 4.72182617 16.76953125 4.70703125 C17.87711792 4.68346558 17.87711792 4.68346558 19.00708008 4.65942383 C21.59888054 5.10234453 22.48742178 5.87036517 24 8 C23.6875 11.6875 23.6875 11.6875 23 15 C22.01 15.33 21.02 15.66 20 16 C19.34 14.02 18.68 12.04 18 10 C11.73 9.67 5.46 9.34 -1 9 C-0.67 6.03 -0.34 3.06 0 0 Z " fill="#06F5FD" transform="translate(140,243)"/>
<path d="M0 0 C3.57276904 1.51374725 5.85680371 3.61894388 8.5625 6.375 C9.32691406 7.14585937 10.09132812 7.91671875 10.87890625 8.7109375 C15.87122862 14.09860031 15.87122862 14.09860031 16.375 17.625 C16.25125 18.40875 16.1275 19.1925 16 20 C15.01 20.66 14.02 21.32 13 22 C12.5153125 21.28714844 12.030625 20.57429688 11.53125 19.83984375 C7.23587686 13.70241635 2.91516635 8.60942484 -3 4 C-2.01 2.68 -1.02 1.36 0 0 Z " fill="#04FAFE" transform="translate(197,242)"/>
<path d="M0 0 C1.79678305 3.59356609 0.99027881 8.08691774 0.87304688 12.05859375 C0.80786715 16.22242813 1.08446782 18.16893565 3 22 C5.97 22 8.94 22 12 22 C9.19475573 25.40029608 7.8089439 26.87447422 3.375 27.5625 C0 27 0 27 -1.875 25.25 C-4.78497919 19.43004163 -5.13630992 11.99451279 -3.36328125 5.76171875 C-1.59464928 1.59464928 -1.59464928 1.59464928 0 0 Z " fill="#0DF5FE" transform="translate(302,226)"/>
<path d="M0 0 C6.41525747 -0.36312778 6.41525747 -0.36312778 8.7109375 1.0625 C11.933214 5.90567923 10.37433977 14.78691699 9.71875 20.4140625 C8.52569674 25.98929217 5.675142 31.01729276 3 36 C2.67 35.34 2.34 34.68 2 34 C2.59077194 32.23065289 3.24911746 30.48370418 3.9375 28.75 C6.31365449 21.92680639 7.06097434 15.17830386 6 8 C4.18227445 5.51368574 3.33322715 5.08524415 0.3125 4.3125 C-0.450625 4.209375 -1.21375 4.10625 -2 4 C-1.34 2.68 -0.68 1.36 0 0 Z " fill="#13F9FE" transform="translate(371,215)"/>
<path d="M0 0 C1.29454102 0.03673828 1.29454102 0.03673828 2.61523438 0.07421875 C3.47439453 0.07550781 4.33355469 0.07679688 5.21875 0.078125 C9.42105555 0.13680731 12.51836325 0.18582438 16.17773438 2.44921875 C17.57204941 5.23784882 17.43433532 7.37000743 17.17773438 10.44921875 C16.18773437 11.10921875 15.19773438 11.76921875 14.17773438 12.44921875 C13.90960938 11.66546875 13.64148438 10.88171875 13.36523438 10.07421875 C12.32959005 7.16806952 12.32959005 7.16806952 9.17773438 5.44921875 C7.05435667 5.08488502 7.05435667 5.08488502 4.72851562 5.03515625 C3.88095703 4.99648437 3.03339844 4.9578125 2.16015625 4.91796875 C1.27908203 4.88703125 0.39800781 4.85609375 -0.50976562 4.82421875 C-1.8487793 4.76621094 -1.8487793 4.76621094 -3.21484375 4.70703125 C-5.41711182 4.61281657 -7.61937285 4.52720287 -9.82226562 4.44921875 C-7.64200576 -0.28559453 -4.68718315 -0.02185167 0 0 Z " fill="#11FEFE" transform="translate(146.822265625,206.55078125)"/>
<path d="M0 0 C1.32 0 2.64 0 4 0 C3.88946991 4.1880122 3.7589943 8.37517803 3.625 12.5625 C3.57859375 14.33463867 3.57859375 14.33463867 3.53125 16.14257812 C3.14542019 27.62101484 3.14542019 27.62101484 1 33 C0.01 33.495 0.01 33.495 -1 34 C-1.15298709 22.62795953 -0.68416471 11.34980389 0 0 Z " fill="#16F7FE" transform="translate(409,226)"/>
<path d="M0 0 C3.6330673 0.87193615 3.94173864 1.41177438 5.875 4.4375 C6.64756195 5.86300141 7.39989225 7.2997845 8.125 8.75 C8.57875 9.554375 9.0325 10.35875 9.5 11.1875 C10.45766257 15.11391654 9.76207957 18.79838483 9.125 22.75 C5.43428999 20.90464499 4.43171858 15.27117472 3.04296875 11.4765625 C2.20460385 9.39380843 1.43108754 7.57806668 0.125 5.75 C-2.98550554 4.61384696 -2.98550554 4.61384696 -5.875 4.75 C-4.20111397 1.77420261 -3.36030606 0.87660158 0 0 Z " fill="#08F4FD" transform="translate(94.875,223.25)"/>
<path d="M0 0 C7.36196319 -0.49079755 7.36196319 -0.49079755 10.4375 1.875 C13.89842654 6.58186009 13.46806904 11.32076228 13 17 C12.23871075 19.58484257 11.2758062 21.60786338 10 24 C9.34 24 8.68 24 8 24 C8.03480469 22.80761719 8.06960938 21.61523438 8.10546875 20.38671875 C8.13360753 18.82032658 8.1609076 17.25391919 8.1875 15.6875 C8.21263672 14.90181641 8.23777344 14.11613281 8.26367188 13.30664062 C8.27333984 12.54931641 8.28300781 11.79199219 8.29296875 11.01171875 C8.3086792 10.31522217 8.32438965 9.61872559 8.34057617 8.90112305 C7.89047798 6.38863947 7.00275775 5.53966547 5 4 C1.89160979 3.2730774 1.89160979 3.2730774 -1 3 C-0.67 2.01 -0.34 1.02 0 0 Z " fill="#F912FE" transform="translate(304,224)"/>
<path d="M0 0 C5.53735662 3.6162329 10.09111407 7.61785615 14 13 C14 13.66 14 14.32 14 15 C16.97 15.495 16.97 15.495 20 16 C18 19 18 19 15.2734375 19.5703125 C10.59309133 18.75488226 8.68267941 16.34791983 5.625 12.875 C5.07972656 12.30523437 4.53445312 11.73546875 3.97265625 11.1484375 C1.25568707 8.15228102 0.07166205 6.69910315 -0.3515625 2.5703125 C-0.17753906 1.29800781 -0.17753906 1.29800781 0 0 Z " fill="#F908FE" transform="translate(185,253)"/>
<path d="M0 0 C1.32 0 2.64 0 4 0 C4.18451025 13.6332574 4.18451025 13.6332574 3 20 C5.31 19.34 7.62 18.68 10 18 C9 21 9 21 6.125 22.6875 C3 24 3 24 0 24 C0 16.08 0 8.16 0 0 Z " fill="#13F3FD" transform="translate(230,225)"/>
<path d="M0 0 C0.33 0 0.66 0 1 0 C0.32156057 6.44517454 -0.52549316 12.84334117 -1.5 19.25 C-1.63019531 20.12140625 -1.76039063 20.9928125 -1.89453125 21.890625 C-2.50693576 25.94857812 -3.1374644 29.98589202 -4 34 C-4.99 34 -5.98 34 -7 34 C-5.22265126 16.98283125 -5.22265126 16.98283125 -4.0625 9.125 C-3.92972656 8.22007812 -3.79695312 7.31515625 -3.66015625 6.3828125 C-2.91435081 3.69085204 -1.84894645 2.07584067 0 0 Z " fill="#F31DFD" transform="translate(132,215)"/>
<path d="M0 0 C0.99 0 1.98 0 3 0 C3 1.65 3 3.3 3 5 C4.258125 4.938125 5.51625 4.87625 6.8125 4.8125 C10.70339488 4.83315962 10.70339488 4.83315962 13 6.125 C14.47271848 8.88634715 14.39191116 10.93002928 14 14 C13.01 14.66 12.02 15.32 11 16 C10.87625 15.21625 10.7525 14.4325 10.625 13.625 C9.2707816 10.80898488 9.2707816 10.80898488 6.640625 10.22265625 C4.09797096 9.73064551 1.56997021 9.31769004 -1 9 C-0.67 6.03 -0.34 3.06 0 0 Z " fill="#06F9FE" transform="translate(143,223)"/>
<path d="M0 0 C0.66 0 1.32 0 2 0 C2.83790789 1.78953185 3.67019396 3.58169695 4.5 5.375 C4.9640625 6.37273437 5.428125 7.37046875 5.90625 8.3984375 C7 11 7 11 7 13 C9.97 13.495 9.97 13.495 13 14 C11.23470379 16.22984785 10.34766278 16.93915901 7.5 17.4375 C5 17 5 17 3.375 15.5625 C1.13884109 11.39511293 -1.46494124 6.51412669 -0.578125 1.71875 C-0.38734375 1.1515625 -0.1965625 0.584375 0 0 Z " fill="#F610FE" transform="translate(94,257)"/>
<path d="M0 0 C3.92117276 1.30705759 6.57631657 2.58888999 9 6 C9.49607384 9.4725169 9.59979706 12.80040587 8 16 C7.34 16 6.68 16 6 16 C5.62875 14.1128125 5.62875 14.1128125 5.25 12.1875 C4.32319403 8.3593884 3.22788117 7.25951682 0 5 C-0.25 2.3125 -0.25 2.3125 0 0 Z " fill="#F905FE" transform="translate(234,226)"/>
<path d="M0 0 C0.08172936 2.5215021 0.14083373 5.04029917 0.1875 7.5625 C0.22520508 8.61920898 0.22520508 8.61920898 0.26367188 9.69726562 C0.335239 14.87395467 -0.5607689 18.4109381 -3 23 C-3.66 23.33 -4.32 23.66 -5 24 C-4.72362039 20.18622797 -4.42635166 16.37437365 -4.125 12.5625 C-4.04636719 11.47388672 -3.96773438 10.38527344 -3.88671875 9.26367188 C-3.80292969 8.22919922 -3.71914063 7.19472656 -3.6328125 6.12890625 C-3.52283936 4.69140015 -3.52283936 4.69140015 -3.41064453 3.22485352 C-3.27513184 2.49065186 -3.13961914 1.7564502 -3 1 C-1 0 -1 0 0 0 Z " fill="#FC09FE" transform="translate(366,222)"/>
<path d="M0 0 C0.99 0.33 1.98 0.66 3 1 C3.10823773 3.24893954 3.18569645 5.49937575 3.25 7.75 C3.29640625 9.00296875 3.3428125 10.2559375 3.390625 11.546875 C3 15 3 15 -1 19 C-0.67 12.73 -0.34 6.46 0 0 Z " fill="#0AEDFC" transform="translate(181,251)"/>
<path d="M0 0 C0.28875 0.598125 0.5775 1.19625 0.875 1.8125 C2.04742026 4.19327792 2.04742026 4.19327792 4 7 C6.56282742 7.72965366 6.56282742 7.72965366 9 8 C8.67 8.99 8.34 9.98 8 11 C1.67402207 11.35807422 1.67402207 11.35807422 -1 9.9375 C-2.59967215 6.83813522 -1.73342508 4.30041286 -1 1 C-0.67 0.67 -0.34 0.34 0 0 Z " fill="#F610FE" transform="translate(76,267)"/>
<path d="M0 0 C0.66 0 1.32 0 2 0 C2.30950345 6.49957243 1.88761459 12.06581955 -1 18 C-1.66 18.33 -2.32 18.66 -3 19 C-2.68798326 16.95825942 -2.37536431 14.91661087 -2.0625 12.875 C-1.88847656 11.73804688 -1.71445313 10.60109375 -1.53515625 9.4296875 C-1.04410734 6.28267331 -0.52981281 3.14069217 0 0 Z " fill="#0DEDFD" transform="translate(92,252)"/>
<path d="M0 0 C0.33 0 0.66 0 1 0 C0.88623383 2.12563103 0.75864369 4.2505261 0.625 6.375 C0.52058594 8.15003906 0.52058594 8.15003906 0.4140625 9.9609375 C0 13 0 13 -2 15 C-3.91094007 11.17811986 -3.35439031 7.08679694 -2.0625 3.125 C-1 1 -1 1 0 0 Z " fill="#F717FE" transform="translate(106,221)"/>
<path d="M0 0 C3.63 0 7.26 0 11 0 C10.01 1.485 10.01 1.485 9 3 C6.8359375 3.29296875 6.8359375 3.29296875 4.375 3.1875 C3.55773437 3.16042969 2.74046875 3.13335937 1.8984375 3.10546875 C1.27195313 3.07066406 0.64546875 3.03585938 0 3 C0 2.01 0 1.02 0 0 Z " fill="#F409FE" transform="translate(146,223)"/>
<path d="M0 0 C0.66 0.33 1.32 0.66 2 1 C1.75 4.3125 1.75 4.3125 1 8 C-1.046875 9.73046875 -1.046875 9.73046875 -3 11 C-2.69217504 9.35328588 -2.37860766 7.70764424 -2.0625 6.0625 C-1.88847656 5.14597656 -1.71445313 4.22945313 -1.53515625 3.28515625 C-1 1 -1 1 0 0 Z " fill="#16FAFE" transform="translate(114,255)"/>
<path d="M0 0 C0 3 0 3 -1.4375 5.375 C-3.00282114 8.00473952 -3.57112625 9.99788375 -4 13 C-4.99 13 -5.98 13 -7 13 C-6.65986985 7.55791766 -3.29703472 4.06331802 0 0 Z " fill="#E41FFC" transform="translate(176,223)"/>
<path d="M0 0 C-0.48828125 6.0546875 -0.48828125 6.0546875 -1 8 C-1.99 8.66 -2.98 9.32 -4 10 C-3.88637738 8.5199159 -3.75877092 7.04089926 -3.625 5.5625 C-3.55539063 4.73878906 -3.48578125 3.91507813 -3.4140625 3.06640625 C-3.27742188 2.38449219 -3.14078125 1.70257813 -3 1 C-1 0 -1 0 0 0 Z " fill="#F61EFE" transform="translate(81,249)"/>
<path d="M0 0 C0.99 0 1.98 0 3 0 C2.67 3.96 2.34 7.92 2 12 C1.67 12 1.34 12 1 12 C0.01751476 7.9472484 -0.08159574 4.16138263 0 0 Z " fill="#E00EFC" transform="translate(125,249)"/>
<path d="M0 0 C0.33 0.66 0.66 1.32 1 2 C2.32 1.67 3.64 1.34 5 1 C0.375 5.875 0.375 5.875 -3 7 C-2.25 2.25 -2.25 2.25 0 0 Z " fill="#18E7FC" transform="translate(186,231)"/>
<path d="M0 0 C0 2.95274099 -0.43891831 4.49058403 -1.5 7.1875 C-1.7784375 7.90292969 -2.056875 8.61835938 -2.34375 9.35546875 C-2.5603125 9.89816406 -2.776875 10.44085938 -3 11 C-3.99 11 -4.98 11 -6 11 C-5.55530671 5.96014269 -3.28656638 3.62365012 0 0 Z " fill="#EE22FD" transform="translate(291,220)"/>
<path d="M0 0 C1.47193312 2.94386623 0.84936173 5.37390036 0.5625 8.625 C0.40974609 10.40777344 0.40974609 10.40777344 0.25390625 12.2265625 C0.12822266 13.59941406 0.12822266 13.59941406 0 15 C-0.33 15 -0.66 15 -1 15 C-1.22786458 13.01432292 -1.45572917 11.02864583 -1.68359375 9.04296875 C-1.97170735 6.80603607 -1.97170735 6.80603607 -3 4 C-1.5625 1.8125 -1.5625 1.8125 0 0 Z " fill="#49F2FE" transform="translate(302,226)"/>
<path d="M0 0 C-4.625 3 -4.625 3 -8 3 C-8.33 2.01 -8.66 1.02 -9 0 C-3.375 -1.125 -3.375 -1.125 0 0 Z " fill="#F524FE" transform="translate(362,263)"/>
<path d="M0 0 C0.33 0.66 0.66 1.32 1 2 C1.66 2 2.32 2 3 2 C2.67 3.98 2.34 5.96 2 8 C1.01 8 0.02 8 -1 8 C-0.67 5.36 -0.34 2.72 0 0 Z " fill="#E629FC" transform="translate(80,242)"/>
<path d="M0 0 C0.99 0 1.98 0 3 0 C2.67 1.32 2.34 2.64 2 4 C0.68 4.33 -0.64 4.66 -2 5 C-1.125 1.125 -1.125 1.125 0 0 Z " fill="#E731FD" transform="translate(189,228)"/>
<path d="M0 0 C0.33 0 0.66 0 1 0 C1 2.31 1 4.62 1 7 C0.01 7 -0.98 7 -2 7 C-1.125 1.125 -1.125 1.125 0 0 Z " fill="#FE16FF" transform="translate(127,242)"/>
</svg>
