<?xml version="1.0" encoding="UTF-8"?>
<svg version="1.1" xmlns="http://www.w3.org/2000/svg" width="500" height="500">
<path d="M0 0 C165 0 330 0 500 0 C500 165 500 330 500 500 C335 500 170 500 0 500 C0 335 0 170 0 0 Z " fill="#129AA4" transform="translate(0,0)"/>
<path d="M0 0 C0.73943848 0.00563965 1.47887695 0.0112793 2.24072266 0.01708984 C16.38135748 0.32682832 28.4157746 5.41128205 38.74609375 15.11328125 C52.93161395 30.68140575 51.5047487 51.63212821 50.75 71.3125 C49.31330316 92.92487912 36.45844863 111.20785102 20.75 125.3125 C8.19567407 135.40930234 -5.29459538 141.08957714 -21.53125 140.7265625 C-31.60671191 139.60471485 -40.77766201 134.53719391 -47.33984375 126.87109375 C-52.01178436 120.75494058 -55.38685714 114.43706479 -58.25 107.3125 C-58.57806641 106.5503418 -58.90613281 105.78818359 -59.24414062 105.00292969 C-66.84916615 84.66133228 -63.50659897 57.4370769 -54.64453125 37.97265625 C-46.81649793 23.04018933 -32.34271714 8.2336819 -16.25 2.3125 C-10.71673801 0.70419615 -5.75137071 -0.04654288 0 0 Z " fill="#8A5CF6" transform="translate(312.25,171.6875)"/>
<path d="M0 0 C3.61869547 1.83682156 6.53434157 4.36272976 8.34570312 8.02294922 C11.07949288 18.99722812 6.8039868 33.46175391 4.92578125 44.4140625 C4.77604858 45.30054474 4.62631592 46.18702698 4.4720459 47.10037231 C1.91841576 62.20354338 -0.89472706 77.25465289 -3.82421875 92.2890625 C-4.10942383 93.75933395 -4.10942383 93.75933395 -4.40039062 95.25930786 C-10.06222371 124.33956746 -10.06222371 124.33956746 -16.07421875 130.3515625 C-16.87859375 131.2178125 -17.68296875 132.0840625 -18.51171875 132.9765625 C-23.99034638 138.05431494 -28.39594977 140.34623356 -35.84375 140.77734375 C-39.37621483 140.10302034 -41.31588249 138.65436078 -44.07421875 136.3515625 C-45.81565767 133.67064908 -47.0709117 130.84930761 -48.32421875 127.9140625 C-48.66195312 127.16318359 -48.9996875 126.41230469 -49.34765625 125.63867188 C-50.27988055 123.55217773 -51.18185027 121.45534518 -52.07421875 119.3515625 C-52.47640625 118.42859375 -52.87859375 117.505625 -53.29296875 116.5546875 C-55.25519162 111.021219 -54.0258971 105.74909306 -52.52734375 100.30078125 C-51.40448603 95.47055709 -51.63325951 91.62324118 -54.07421875 87.3515625 C-54.07421875 86.3615625 -54.07421875 85.3715625 -54.07421875 84.3515625 C-54.73421875 84.3515625 -55.39421875 84.3515625 -56.07421875 84.3515625 C-56.10217529 84.92302002 -56.13013184 85.49447754 -56.15893555 86.08325195 C-56.76454586 94.87337241 -58.5292558 103.3748829 -60.34790039 111.97729492 C-60.88726272 114.54164877 -61.40788936 117.10936211 -61.92773438 119.67773438 C-62.27360728 121.33357025 -62.62057513 122.98917788 -62.96875 124.64453125 C-63.11995804 125.39993698 -63.27116608 126.15534271 -63.42695618 126.93363953 C-64.81922677 133.37500022 -66.60308645 139.5496952 -72.07421875 143.5390625 C-73.06421875 144.1371875 -74.05421875 144.7353125 -75.07421875 145.3515625 C-76.41716356 147.01049432 -77.75166563 148.67632855 -79.07421875 150.3515625 C-82.94896579 152.78783049 -86.02681664 152.62975075 -90.4609375 152.09765625 C-94.96304878 150.81230012 -98.10842838 147.89812122 -101.07421875 144.3515625 C-103.75927726 136.29638696 -101.80201145 127.57667766 -99.88671875 119.5390625 C-99.65968262 118.54334229 -99.43264648 117.54762207 -99.19873047 116.52172852 C-98.72775861 114.46061635 -98.25184558 112.40062703 -97.77099609 110.34179688 C-97.12554471 107.57182894 -96.49621548 104.79892656 -95.875 102.0234375 C-94.86338195 97.50892842 -93.83184784 92.99925508 -92.79394531 88.49072266 C-91.98209945 84.94977487 -91.18101411 81.40644708 -90.37890625 77.86328125 C-85.19499129 55.05306095 -85.19499129 55.05306095 -82.51171875 45.7890625 C-82.18042969 44.63277344 -81.84914062 43.47648437 -81.5078125 42.28515625 C-79.61628772 38.41448838 -77.58342502 36.82783552 -74.07421875 34.3515625 C-73.41421875 34.3515625 -72.75421875 34.3515625 -72.07421875 34.3515625 C-71.84734375 33.7740625 -71.62046875 33.1965625 -71.38671875 32.6015625 C-69.40792338 29.20934187 -66.56434933 27.09662779 -63.07421875 25.3515625 C-58.67366437 24.94655573 -54.49763624 24.9087215 -50.26171875 26.2265625 C-43.21594131 33.07103201 -40.1127633 45.00252961 -36.26171875 53.9765625 C-35.65846779 55.37641617 -35.05495395 56.77615658 -34.45117188 58.17578125 C-32.98916005 61.56641041 -31.53069247 64.95855008 -30.07421875 68.3515625 C-29.56478762 66.2790099 -29.06380862 64.20437855 -28.56640625 62.12890625 C-28.28651855 60.97382568 -28.00663086 59.81874512 -27.71826172 58.62866211 C-26.67190047 53.30443655 -26.92281405 49.34437833 -29.69921875 44.5390625 C-31.81030791 39.64517399 -30.86548594 35.52802037 -30.07421875 30.3515625 C-29.93040771 29.32071533 -29.93040771 29.32071533 -29.78369141 28.26904297 C-29.46396404 26.00120929 -29.11710602 23.7390655 -28.76171875 21.4765625 C-28.65649902 20.75106201 -28.5512793 20.02556152 -28.44287109 19.27807617 C-27.65049612 14.60241346 -26.40142458 11.73580614 -23.07421875 8.3515625 C-21.40755208 7.3515625 -19.74088542 6.3515625 -18.07421875 5.3515625 C-16.70782533 3.7118904 -15.36908696 2.04828636 -14.07421875 0.3515625 C-9.91000545 -1.73054415 -4.37639569 -1.36813877 0 0 Z " fill="#2563EB" transform="translate(230.07421875,185.6484375)"/>
<path d="M0 0 C0.33 0.66 0.66 1.32 1 2 C0.67 2.66 0.34 3.32 0 4 C0.845625 4.06316406 1.69125 4.12632812 2.5625 4.19140625 C10.68656338 5.06843582 15.74535328 6.58365761 21 13 C26.95100043 22.02248452 26.13786952 37.20233792 24.3984375 47.59375 C23.46880566 51.38739913 22.43408824 54.98404881 20.8984375 58.578125 C19.76812878 61.194519 19.76812878 61.194519 20 65 C18.390625 66.44921875 18.390625 66.44921875 16.25 67.6875 C15.55390625 68.10386719 14.8578125 68.52023437 14.140625 68.94921875 C9.64596639 71.15553839 4.96190762 71.66222752 0 71 C-5.57877929 68.3746921 -8.43530857 64.43581645 -11 59 C-12.93691533 52.27913717 -13.32595206 45.58105003 -13.25 38.625 C-13.23767334 37.24646851 -13.23767334 37.24646851 -13.22509766 35.84008789 C-13.03266874 24.11951178 -11.66649642 13.99222038 -5 4 C-2.30078125 1.65625 -2.30078125 1.65625 0 0 Z " fill="#25C1B7" transform="translate(301,204)"/>
<path d="M0 0 C0.76441406 -0.00773438 1.52882813 -0.01546875 2.31640625 -0.0234375 C14.61609394 0.01832714 28.24965234 4.50408449 37.125 13.25 C51.49485869 29.75948838 52.53050047 50.26714949 51.125 71.25 C48.66740439 90.49929529 39.32066462 106.5327676 26.125 120.25 C25.135 119.755 25.135 119.755 24.125 119.25 C24.54910156 118.77433594 24.97320312 118.29867187 25.41015625 117.80859375 C41.22728892 98.93232333 42.67517737 75.94739857 41.125 52.25 C39.37135949 38.96389061 35.09963018 27.61486686 24.375 19 C11.73691516 10.19978619 -1.78638944 8.01629299 -16.875 9.25 C-21.79712511 10.15280184 -25.91198038 11.76849019 -30.375 14 C-31.6125 14.61875 -31.6125 14.61875 -32.875 15.25 C-33.535 14.92 -34.195 14.59 -34.875 14.25 C-28.94504454 8.19795722 -22.80933376 5.07462282 -14.875 2.25 C-13.4828125 1.69505859 -13.4828125 1.69505859 -12.0625 1.12890625 C-7.97144827 0.0008589 -4.22161299 -0.04228661 0 0 Z " fill="#03FAFD" transform="translate(320.875,163.75)"/>
<path d="M0 0 C0.33 0.66 0.66 1.32 1 2 C-0.01995371 4.20489993 -1.09281279 6.30638924 -2.25 8.4375 C-12.4365793 28.00327788 -13.6299467 55.3115565 -7.32421875 76.3359375 C-2.72995909 89.04807781 4.31945005 100.19745255 16.3671875 106.84765625 C20.82779614 108.7999998 25.17167743 109.56538306 30 110 C30.88558594 110.0825 31.77117187 110.165 32.68359375 110.25 C41.37001491 110.6534332 49.5792249 108.30303852 57.26171875 104.30078125 C58.16535156 103.87152344 59.06898438 103.44226563 60 103 C60.66 103.33 61.32 103.66 62 104 C50.59809798 114.88363375 36.34849077 119.76350792 20.71875 119.4140625 C10.64328809 118.29221485 1.47233799 113.22469391 -5.08984375 105.55859375 C-9.76178436 99.44244058 -13.13685714 93.12456479 -16 86 C-16.32806641 85.2378418 -16.65613281 84.47568359 -16.99414062 83.69042969 C-24.61328963 63.31105541 -21.2052246 36.20605467 -12.421875 16.6875 C-9.10093272 10.41055415 -5.11317919 4.9229734 0 0 Z " fill="#F805FD" transform="translate(270,193)"/>
<path d="M0 0 C4.78245045 2.84627182 8.37622615 5.99854606 10.90625 11.05859375 C11.33628955 18.41314776 10.05452797 25.44520711 8.84375 32.68359375 C8.61959384 34.04385815 8.3954737 35.40412849 8.17138672 36.7644043 C4.39274445 59.52034795 0.16333098 82.20637056 -4.39337158 104.81893921 C-4.69026023 106.29531546 -4.98455228 107.77221658 -5.27606201 109.24966431 C-5.68049255 111.29202972 -6.09633646 113.33173373 -6.515625 115.37109375 C-6.74862305 116.52222656 -6.98162109 117.67335938 -7.22167969 118.859375 C-8.85717336 124.85923757 -10.98947894 128.47180868 -16.09375 132.05859375 C-16.75375 131.72859375 -17.41375 131.39859375 -18.09375 131.05859375 C-17.73192627 129.32633545 -17.73192627 129.32633545 -17.36279297 127.55908203 C-11.15123525 97.7637657 -5.27952756 67.96894011 -0.71875 37.87109375 C-0.55076904 36.7720874 -0.38278809 35.67308105 -0.2097168 34.54077148 C1.66108694 23.64271186 1.66108694 23.64271186 -1.8359375 13.56640625 C-4.93216325 9.85478159 -8.89025536 8.97778474 -13.46875 8.37109375 C-15.263125 8.21640625 -15.263125 8.21640625 -17.09375 8.05859375 C-15.91566948 4.70559535 -14.89968388 2.30334085 -12.09375 0.05859375 C-7.86077618 -1.35239752 -4.19327951 -1.88541112 0 0 Z " fill="#02F9FB" transform="translate(237.09375,176.94140625)"/>
<path d="M0 0 C-0.5572826 5.32644847 -1.50146245 10.10651355 -3.0625 15.25 C-7.09652779 29.13604371 -9.9459474 43.33808798 -13.01123047 57.46142578 C-13.79752731 61.08016189 -14.59672448 64.69584853 -15.40272522 68.3102417 C-16.10766114 71.47637318 -16.80311054 74.64458934 -17.5 77.8125 C-17.88273071 79.51768799 -17.88273071 79.51768799 -18.27319336 81.25732422 C-20.8186302 92.18775107 -20.8186302 92.18775107 -17.328125 102.42578125 C-14.07684958 106.27949887 -9.9722926 108.014525 -5.0625 108.75 C-4.051875 108.8325 -3.04125 108.915 -2 109 C-4.06915214 113.02940154 -5.71140961 115.35756113 -10 117 C-14.62807579 117.41493093 -18.43271976 117.00387885 -22.390625 114.46875 C-27.67140468 109.98578595 -27.67140468 109.98578595 -29 106 C-29.56869515 98.44470594 -28.55839583 91.51423332 -26.8125 84.1875 C-26.58546387 83.19177979 -26.35842773 82.19605957 -26.12451172 81.17016602 C-25.65353986 79.10905385 -25.17762683 77.04906453 -24.69677734 74.99023438 C-24.05132596 72.22026644 -23.42199673 69.44736406 -22.80078125 66.671875 C-21.7891632 62.15736592 -20.75762909 57.64769258 -19.71972656 53.13916016 C-18.9078807 49.59821237 -18.10679536 46.05488458 -17.3046875 42.51171875 C-12.11509145 19.6819393 -12.11509145 19.6819393 -9.375 10.375 C-9.03210938 9.20710937 -8.68921875 8.03921875 -8.3359375 6.8359375 C-6.65651025 3.27083754 -4.23546321 0 0 0 Z " fill="#F605FC" transform="translate(157,221)"/>
<path d="M0 0 C0.33 0.66 0.66 1.32 1 2 C0.28209518 3.8802269 -0.43733139 5.75988566 -1.1640625 7.63671875 C-5.84886323 20.88113203 -6.04742893 38.15777658 -1.27734375 51.34765625 C0.54598907 55.13372042 2.69905694 58.35924555 6 61 C9.28519475 62.09506492 11.73663415 62.09960608 15.1875 62.0625 C16.27417969 62.05347656 17.36085938 62.04445313 18.48046875 62.03515625 C19.72763672 62.01775391 19.72763672 62.01775391 21 62 C19.06079171 66.57921957 16.34954809 67.93864954 12 70 C8.20302547 71.46979659 4.01239254 71.53550307 0 71 C-5.57877929 68.3746921 -8.43530857 64.43581645 -11 59 C-12.93691533 52.27913717 -13.32595206 45.58105003 -13.25 38.625 C-13.23767334 37.24646851 -13.23767334 37.24646851 -13.22509766 35.84008789 C-13.03266874 24.11951178 -11.66649642 13.99222038 -5 4 C-2.30078125 1.65625 -2.30078125 1.65625 0 0 Z " fill="#02FBFE" transform="translate(301,204)"/>
<path d="M0 0 C6.23378984 3.76355362 8.58256499 7.55431433 10.375 14.5 C13.33058604 29.44682085 11.6645215 44.93910319 4.2578125 58.3359375 C2.24555202 60.75621393 0.53669681 61.4575359 -2.4375 62.375 C-2.14875 61.34503906 -1.86 60.31507813 -1.5625 59.25390625 C1.91572077 46.1865746 4.44165667 30.44340202 -0.4375 17.375 C-3.04671084 13.18924751 -5.84543131 10.18872399 -10.25 7.9375 C-14.62829326 7.16486001 -19.00550634 6.70783747 -23.4375 6.375 C-20.98952629 0.74466046 -20.98952629 0.74466046 -18.6875 -0.796875 C-12.86541863 -2.93972439 -5.62416106 -2.57104506 0 0 Z " fill="#F805FD" transform="translate(323.4375,202.625)"/>
<path d="M0 0 C6.45595167 3.53250185 8.36954115 9.37941944 11 16 C11.3609375 16.88816406 11.721875 17.77632812 12.09375 18.69140625 C12.76968704 20.36844702 13.43294817 22.05066525 14.08203125 23.73828125 C15.05383307 26.24027298 15.05383307 26.24027298 16.8125 29.4375 C19.36437672 37.09313015 16.87739731 45.36525095 15 53 C12.25894053 49.69461975 10.6787804 46.27020357 9.00390625 42.328125 C8.59168068 41.36625275 8.59168068 41.36625275 8.17112732 40.38494873 C7.29646356 38.34210738 6.42904004 36.29629894 5.5625 34.25 C3.39657223 29.15712641 1.21474909 24.07185553 -1 19 C-1.3830127 18.12021484 -1.76602539 17.24042969 -2.16064453 16.33398438 C-3.93753704 12.49027161 -5.07327309 10.58830739 -9 9 C-11.58532701 8.54935368 -11.58532701 8.54935368 -14.25 8.375 C-15.14203125 8.30023438 -16.0340625 8.22546875 -16.953125 8.1484375 C-17.96632812 8.07496094 -17.96632812 8.07496094 -19 8 C-17.41845757 4.38070098 -15.69507674 2.63823437 -12.12890625 0.76953125 C-8.06465356 -0.69956559 -4.22936183 -0.77024802 0 0 Z " fill="#01FAFD" transform="translate(186,203)"/>
<path d="M0 0 C2.67244272 3.22056067 4.15465128 6.46516353 5.70703125 10.33984375 C6.21614891 11.58034425 6.7259356 12.82057036 7.23632812 14.06054688 C8.02671198 15.9974162 8.8118625 17.93589769 9.58520508 19.87963867 C13.32021011 29.96357768 13.32021011 29.96357768 21 37 C23.71730659 37.79490648 23.71730659 37.79490648 26.375 37.8125 C27.24898437 37.86019531 28.12296875 37.90789062 29.0234375 37.95703125 C29.67570312 37.97121094 30.32796875 37.98539062 31 38 C29.39015783 41.50377414 28.20908944 42.881106 24.8125 44.8125 C19.39147486 46.50101603 15.30594 47.16052551 10.01953125 44.5 C6.15568479 41.30095507 4.68959365 38.10502832 2.75 33.5625 C2.24339844 32.43618164 2.24339844 32.43618164 1.7265625 31.28710938 C0.79433272 29.20060295 -0.10823428 27.10405555 -1 25 C-1.40089844 24.071875 -1.80179688 23.14375 -2.21484375 22.1875 C-4.84250575 14.86665064 -2.00107384 7.1466923 0 0 Z " fill="#F804FE" transform="translate(179,280)"/>
<path d="M0 0 C0.66 0 1.32 0 2 0 C6.012094 8.19135858 5.11687331 14.01328899 2.7890625 22.671875 C1.94964478 26.21238934 1.45307573 29.70325267 1 33.3125 C0.04808225 40.38946231 -1.06951626 46.36680958 -7 51 C-7.99 51 -8.98 51 -10 51 C-6.91333882 33.94495638 -3.62574512 16.94890112 0 0 Z " fill="#02F8FC" transform="translate(174,270)"/>
<path d="M0 0 C0.99 0.33 1.98 0.66 3 1 C2.05095088 6.68026005 1.09045733 12.3584173 0.11914062 18.03491211 C-0.20988984 19.96764097 -0.53574476 21.90091316 -0.85839844 23.8347168 C-1.32180151 26.60873856 -1.79646159 29.38062785 -2.2734375 32.15234375 C-2.41623138 33.02213364 -2.55902527 33.89192352 -2.70614624 34.78807068 C-3.07039667 36.87155116 -3.52643342 38.93861601 -4 41 C-4.99 41.495 -4.99 41.495 -6 42 C-10.26832884 35.1448052 -10.30714226 30.83351685 -9 23 C-8.79576906 21.56395893 -8.59272347 20.12774898 -8.390625 18.69140625 C-8.15897816 17.16885326 -7.92460148 15.6467131 -7.6875 14.125 C-7.58236084 13.39933838 -7.47722168 12.67367676 -7.36889648 11.92602539 C-6.57692571 7.25702478 -5.32371943 4.38157914 -2 1 C-1.34 0.67 -0.68 0.34 0 0 Z " fill="#F408FC" transform="translate(209,193)"/>
<path d="M0 0 C0.99 0.33 1.98 0.66 3 1 C0.36 3.97 -2.28 6.94 -5 10 C-5.66 9.67 -6.32 9.34 -7 9 C-4.69 6.03 -2.38 3.06 0 0 Z " fill="#17DAEC" transform="translate(352,274)"/>
<path d="M0 0 C0.33 0.66 0.66 1.32 1 2 C-2.625 6.875 -2.625 6.875 -6 8 C-4.55746343 4.63408134 -2.66735273 2.48952921 0 0 Z " fill="#E912FA" transform="translate(270,193)"/>
</svg>
